<mxfile host="app.diagrams.net" agent="Mozilla/5.0 (Macintosh; Intel Mac OS X 10_15_7) AppleWebKit/537.36 (KHTML, like Gecko) Chrome/130.0.0.0 Safari/537.36" version="24.8.4">
  <diagram name="Page-1" id="5yACLu_tYYQ9U0vQjmjW">
    <mxGraphModel dx="1590" dy="968" grid="1" gridSize="10" guides="1" tooltips="1" connect="1" arrows="1" fold="1" page="1" pageScale="1" pageWidth="827" pageHeight="1169" math="0" shadow="0">
      <root>
        <mxCell id="0" />
        <mxCell id="1" parent="0" />
        <mxCell id="EhTKWdYSq4bksoR8cweC-1" value="&lt;font style=&quot;font-size: 36px;&quot;&gt;Patten Generator&lt;/font&gt;" style="rounded=0;whiteSpace=wrap;html=1;" vertex="1" parent="1">
          <mxGeometry x="80" y="240" width="200" height="160" as="geometry" />
        </mxCell>
        <mxCell id="EhTKWdYSq4bksoR8cweC-2" value="" style="endArrow=classic;html=1;rounded=0;strokeWidth=3;exitX=1;exitY=0.5;exitDx=0;exitDy=0;" edge="1" parent="1" source="EhTKWdYSq4bksoR8cweC-1">
          <mxGeometry width="50" height="50" relative="1" as="geometry">
            <mxPoint x="467" y="316" as="sourcePoint" />
            <mxPoint x="600" y="320" as="targetPoint" />
          </mxGeometry>
        </mxCell>
        <mxCell id="EhTKWdYSq4bksoR8cweC-3" value="" style="swimlane;startSize=0;" vertex="1" parent="1">
          <mxGeometry x="580" y="250" width="460" height="360" as="geometry" />
        </mxCell>
        <mxCell id="EhTKWdYSq4bksoR8cweC-10" value="&lt;font style=&quot;font-size: 24px;&quot;&gt;Clock positive edge&lt;/font&gt;" style="text;html=1;align=center;verticalAlign=middle;resizable=0;points=[];autosize=1;strokeColor=none;fillColor=none;" vertex="1" parent="EhTKWdYSq4bksoR8cweC-3">
          <mxGeometry x="135" y="90" width="230" height="40" as="geometry" />
        </mxCell>
        <mxCell id="EhTKWdYSq4bksoR8cweC-5" value="&lt;font style=&quot;font-size: 36px;&quot;&gt;Latch&lt;/font&gt;" style="rounded=0;whiteSpace=wrap;html=1;" vertex="1" parent="EhTKWdYSq4bksoR8cweC-3">
          <mxGeometry x="20" y="10" width="110" height="100" as="geometry" />
        </mxCell>
        <mxCell id="EhTKWdYSq4bksoR8cweC-8" value="" style="endArrow=classic;html=1;rounded=0;strokeWidth=3;exitX=0.5;exitY=1;exitDx=0;exitDy=0;entryX=0.5;entryY=0;entryDx=0;entryDy=0;" edge="1" parent="EhTKWdYSq4bksoR8cweC-3" source="EhTKWdYSq4bksoR8cweC-5">
          <mxGeometry width="50" height="50" relative="1" as="geometry">
            <mxPoint x="75" y="157" as="sourcePoint" />
            <mxPoint x="75" y="229" as="targetPoint" />
          </mxGeometry>
        </mxCell>
        <mxCell id="EhTKWdYSq4bksoR8cweC-11" value="&lt;font style=&quot;font-size: 36px;&quot;&gt;FF&lt;/font&gt;" style="rounded=0;whiteSpace=wrap;html=1;" vertex="1" parent="EhTKWdYSq4bksoR8cweC-3">
          <mxGeometry x="20" y="230" width="110" height="100" as="geometry" />
        </mxCell>
        <mxCell id="EhTKWdYSq4bksoR8cweC-12" value="&lt;font style=&quot;font-size: 36px;&quot;&gt;Logic&lt;/font&gt;" style="text;html=1;align=center;verticalAlign=middle;resizable=0;points=[];autosize=1;strokeColor=none;fillColor=none;" vertex="1" parent="EhTKWdYSq4bksoR8cweC-3">
          <mxGeometry x="340" y="10" width="110" height="60" as="geometry" />
        </mxCell>
        <mxCell id="EhTKWdYSq4bksoR8cweC-16" value="" style="endArrow=none;html=1;rounded=0;" edge="1" parent="EhTKWdYSq4bksoR8cweC-3">
          <mxGeometry width="50" height="50" relative="1" as="geometry">
            <mxPoint x="130" y="210.00000000000003" as="sourcePoint" />
            <mxPoint x="210" y="210.00000000000003" as="targetPoint" />
          </mxGeometry>
        </mxCell>
        <mxCell id="EhTKWdYSq4bksoR8cweC-17" value="" style="endArrow=none;html=1;rounded=0;" edge="1" parent="EhTKWdYSq4bksoR8cweC-3">
          <mxGeometry width="50" height="50" relative="1" as="geometry">
            <mxPoint x="210" y="210.00000000000003" as="sourcePoint" />
            <mxPoint x="210" y="130.00000000000003" as="targetPoint" />
          </mxGeometry>
        </mxCell>
        <mxCell id="EhTKWdYSq4bksoR8cweC-18" value="" style="endArrow=none;html=1;rounded=0;" edge="1" parent="EhTKWdYSq4bksoR8cweC-3">
          <mxGeometry width="50" height="50" relative="1" as="geometry">
            <mxPoint x="210" y="130.00000000000003" as="sourcePoint" />
            <mxPoint x="290" y="130.00000000000003" as="targetPoint" />
          </mxGeometry>
        </mxCell>
        <mxCell id="EhTKWdYSq4bksoR8cweC-9" value="&lt;font style=&quot;font-size: 24px;&quot;&gt;Comparator positive edge&lt;/font&gt;" style="text;html=1;align=center;verticalAlign=middle;resizable=0;points=[];autosize=1;strokeColor=none;fillColor=none;" vertex="1" parent="1">
          <mxGeometry x="290" y="150" width="300" height="40" as="geometry" />
        </mxCell>
        <mxCell id="EhTKWdYSq4bksoR8cweC-13" value="" style="endArrow=none;html=1;rounded=0;" edge="1" parent="1">
          <mxGeometry width="50" height="50" relative="1" as="geometry">
            <mxPoint x="320" y="280" as="sourcePoint" />
            <mxPoint x="400" y="280" as="targetPoint" />
          </mxGeometry>
        </mxCell>
        <mxCell id="EhTKWdYSq4bksoR8cweC-14" value="" style="endArrow=none;html=1;rounded=0;" edge="1" parent="1">
          <mxGeometry width="50" height="50" relative="1" as="geometry">
            <mxPoint x="400" y="280" as="sourcePoint" />
            <mxPoint x="400" y="200" as="targetPoint" />
          </mxGeometry>
        </mxCell>
        <mxCell id="EhTKWdYSq4bksoR8cweC-15" value="" style="endArrow=none;html=1;rounded=0;" edge="1" parent="1">
          <mxGeometry width="50" height="50" relative="1" as="geometry">
            <mxPoint x="400" y="200" as="sourcePoint" />
            <mxPoint x="480" y="200" as="targetPoint" />
          </mxGeometry>
        </mxCell>
      </root>
    </mxGraphModel>
  </diagram>
</mxfile>
